<svg id="Layer_1" data-name="Layer 1" xmlns="http://www.w3.org/2000/svg" viewBox="0 0 340.88 456.58"><defs><style>.cls-1{fill:#ed1c24;}</style></defs><path class="cls-1" d="M99.82,0h148.3a36.6,36.6,0,0,1,36.6,36.6v0a0,0,0,0,1,0,0H63.22a0,0,0,0,1,0,0v0A36.6,36.6,0,0,1,99.82,0Z"/><rect class="cls-1" y="28.12" width="340.88" height="38.69" rx="13.55"/><path class="cls-1" d="M29.93,96.73V396.6a60,60,0,0,0,60,60H247.32a60,60,0,0,0,60-60V96.73Zm93.34,289.88a16.2,16.2,0,1,1-32.39,0V163.83a16.2,16.2,0,1,1,32.39,0Zm63.36,13.17a16.2,16.2,0,1,1-32.39,0V143.59a16.2,16.2,0,1,1,32.39,0ZM250,382.32a16.2,16.2,0,0,1-32.39,0V159.53a16.2,16.2,0,1,1,32.39,0Z"/></svg>